<?xml version="1.0" encoding="utf-8"?>
<!-- Generator: Adobe Illustrator 24.1.1, SVG Export Plug-In . SVG Version: 6.00 Build 0)  -->
<svg version="1.1" id="Layer_1" xmlns="http://www.w3.org/2000/svg" xmlns:xlink="http://www.w3.org/1999/xlink" x="0px" y="0px"
	 viewBox="0 0 100 100" style="enable-background:new 0 0 100 100;" xml:space="preserve">
<style type="text/css">
	.st0{fill:#FFFFFF;}
</style>
<path class="st0" d="M100,32v36c-0.1,1.4-0.3,2.8-0.4,4.2c-0.8,15.2-9.7,25-24.8,27.1c-2.3,0.3-4.5,0.5-6.8,0.7H32
	c-1.4-0.1-2.8-0.3-4.1-0.4C12.7,98.9,2.8,89.8,0.7,74.8C0.4,72.6,0.2,70.3,0,68V32c0.1-1.4,0.3-2.8,0.4-4.2
	c0.7-15.1,9.8-25,24.8-27.1C27.5,0.4,29.7,0.2,32,0h36c1.4,0.1,2.8,0.3,4.2,0.4c15.2,0.7,25.1,9.8,27.1,24.8
	C99.6,27.5,99.8,29.7,100,32 M50.1,9.4L50.1,9.4c-7,0-14.1-0.2-21.1,0.1c-3.3,0.1-6.7,0.8-9.6,2.2c-7,3.1-9.8,9.4-9.9,16.6
	c-0.2,14.5-0.2,29,0,43.5c0,3,0.9,6.2,2.2,9c3.3,7.1,9.6,9.7,16.8,9.9c14.4,0.2,28.7,0.3,43.1,0c11.6-0.2,18.7-7.3,19-18.9
	c0.3-14.4,0.2-28.9,0-43.3c0-3-0.9-6.2-2.1-9c-3.3-7.3-9.8-9.8-17.2-10C64.2,9.2,57.1,9.4,50.1,9.4 M75.6,50.1
	c0,14.2-11.5,25.6-25.8,25.5c-14.2,0-25.5-11.5-25.4-25.9c0.1-14.1,11.5-25.4,25.7-25.4C64.3,24.4,75.7,35.8,75.6,50.1 M66.7,50.1
	c0-9.2-7.4-16.7-16.6-16.7S33.4,40.8,33.4,50S40.8,66.7,50,66.7S66.6,59.3,66.7,50.1 M82.7,23.2c0-3.2-2.8-5.9-6-5.9
	c-3.3,0-6.1,2.8-6,6.1c0.1,3.2,2.8,5.9,6,5.9C80,29.3,82.7,26.5,82.7,23.2"/>
</svg>
